<mxfile host="65bd71144e">
    <diagram id="_EPxYn-PAymcD0dvTo8O" name="Page-1">
        <mxGraphModel dx="1130" dy="761" grid="1" gridSize="10" guides="1" tooltips="1" connect="1" arrows="1" fold="1" page="1" pageScale="1" pageWidth="827" pageHeight="1169" math="0" shadow="0">
            <root>
                <mxCell id="0"/>
                <mxCell id="1" parent="0"/>
                <mxCell id="2" value="&lt;font&gt;&lt;span class=&quot;char&quot;&gt;&lt;span class=&quot;vchar&quot; id=&quot;char-node&quot;&gt;«System&lt;/span&gt;&lt;/span&gt;&lt;span class=&quot;char&quot;&gt;&lt;span class=&quot;vchar&quot; id=&quot;char-node&quot;&gt;»&lt;br&gt;&lt;div&gt;&lt;b&gt;WaldorfConnect&lt;/b&gt;&lt;/div&gt;&lt;/span&gt;&lt;/span&gt;&lt;/font&gt;" style="shape=cube;whiteSpace=wrap;html=1;boundedLbl=1;backgroundOutline=1;darkOpacity=0.05;darkOpacity2=0.1;size=10;align=center;verticalAlign=top;fillColor=#FFFDFC;fontFamily=Verdana;" parent="1" vertex="1">
                    <mxGeometry x="190" y="190" width="1000" height="660" as="geometry"/>
                </mxCell>
                <mxCell id="175" value="&lt;font&gt;«Component»&lt;br&gt;&lt;b&gt;Portal&lt;/b&gt;&lt;br&gt;&lt;br&gt;portal.waldorfconnect.de&lt;br&gt;&lt;/font&gt;" style="html=1;dropTarget=0;verticalAlign=top;fillColor=#fff2cc;fontFamily=Verdana;fontSize=12;" parent="1" vertex="1">
                    <mxGeometry x="240" y="545" width="422" height="200" as="geometry"/>
                </mxCell>
                <mxCell id="176" value="" style="shape=component;jettyWidth=8;jettyHeight=4;fontFamily=Verdana;fontSize=12;" parent="175" vertex="1">
                    <mxGeometry x="1" width="20" height="20" relative="1" as="geometry">
                        <mxPoint x="-27" y="7" as="offset"/>
                    </mxGeometry>
                </mxCell>
                <mxCell id="143" value="&lt;font&gt;«Component»&lt;br&gt;&lt;b&gt;Simple Account Manager&lt;br&gt;&lt;/b&gt;&lt;br&gt;portal.waldorfconnect.de/register&lt;br&gt;portal.waldorfconnect.de/profile&lt;br&gt;portal.waldorfconnect.de/admin&lt;br&gt;...&lt;br&gt;&lt;/font&gt;" style="html=1;dropTarget=0;verticalAlign=top;fillColor=#fff2cc;fontFamily=Verdana;" parent="1" vertex="1">
                    <mxGeometry x="252" y="625" width="180" height="110" as="geometry"/>
                </mxCell>
                <mxCell id="144" value="" style="shape=component;jettyWidth=8;jettyHeight=4;fontFamily=Verdana;" parent="143" vertex="1">
                    <mxGeometry x="1" width="20" height="20" relative="1" as="geometry">
                        <mxPoint x="-27" y="7" as="offset"/>
                    </mxGeometry>
                </mxCell>
                <mxCell id="147" value="&lt;font&gt;«Component»&lt;br&gt;&lt;b&gt;LDAP Account Manager&lt;/b&gt;&lt;br&gt;&lt;br&gt;portal.waldorfconnect.de/lam&lt;br&gt;&lt;/font&gt;" style="html=1;dropTarget=0;verticalAlign=top;fillColor=#fff2cc;fontFamily=Verdana;" parent="1" vertex="1">
                    <mxGeometry x="472" y="625" width="180" height="110" as="geometry"/>
                </mxCell>
                <mxCell id="148" value="" style="shape=component;jettyWidth=8;jettyHeight=4;fontFamily=Verdana;" parent="147" vertex="1">
                    <mxGeometry x="1" width="20" height="20" relative="1" as="geometry">
                        <mxPoint x="-27" y="7" as="offset"/>
                    </mxGeometry>
                </mxCell>
                <mxCell id="160" value="&lt;font&gt;«Component»&lt;br&gt;&lt;b&gt;NextCloud&lt;/b&gt;&lt;br&gt;&lt;br&gt;cloud.waldorfconnect.de&lt;br&gt;&lt;/font&gt;" style="html=1;dropTarget=0;verticalAlign=top;fillColor=#fff2cc;fontFamily=Verdana;" parent="1" vertex="1">
                    <mxGeometry x="720" y="545" width="180" height="110" as="geometry"/>
                </mxCell>
                <mxCell id="161" value="" style="shape=component;jettyWidth=8;jettyHeight=4;fontFamily=Verdana;" parent="160" vertex="1">
                    <mxGeometry x="1" width="20" height="20" relative="1" as="geometry">
                        <mxPoint x="-27" y="7" as="offset"/>
                    </mxGeometry>
                </mxCell>
                <mxCell id="162" value="&lt;font&gt;«Component»&lt;br&gt;&lt;b&gt;Zulip&lt;/b&gt;&lt;br&gt;&lt;br&gt;chat.waldorfconnect.de&lt;br&gt;&lt;/font&gt;" style="html=1;dropTarget=0;verticalAlign=top;fillColor=#fff2cc;fontFamily=Verdana;" parent="1" vertex="1">
                    <mxGeometry x="950" y="545" width="180" height="110" as="geometry"/>
                </mxCell>
                <mxCell id="163" value="" style="shape=component;jettyWidth=8;jettyHeight=4;fontFamily=Verdana;" parent="162" vertex="1">
                    <mxGeometry x="1" width="20" height="20" relative="1" as="geometry">
                        <mxPoint x="-27" y="7" as="offset"/>
                    </mxGeometry>
                </mxCell>
                <mxCell id="164" value="&lt;font&gt;«Component»&lt;br&gt;&lt;b&gt;Jitsi&lt;/b&gt;&lt;br&gt;&lt;br&gt;meet.waldorfconnect.de&lt;br&gt;&lt;/font&gt;" style="html=1;dropTarget=0;verticalAlign=top;fillColor=#fff2cc;fontFamily=Verdana;" parent="1" vertex="1">
                    <mxGeometry x="950" y="715" width="180" height="110" as="geometry"/>
                </mxCell>
                <mxCell id="165" value="" style="shape=component;jettyWidth=8;jettyHeight=4;fontFamily=Verdana;" parent="164" vertex="1">
                    <mxGeometry x="1" width="20" height="20" relative="1" as="geometry">
                        <mxPoint x="-27" y="7" as="offset"/>
                    </mxGeometry>
                </mxCell>
                <mxCell id="172" value="" style="endArrow=open;html=1;fillColor=#000000;fontFamily=Verdana;fontSize=12;endFill=0;dashed=1;" parent="1" source="162" target="164" edge="1">
                    <mxGeometry relative="1" as="geometry">
                        <mxPoint x="1000" y="665" as="sourcePoint"/>
                        <mxPoint x="1100" y="665" as="targetPoint"/>
                    </mxGeometry>
                </mxCell>
                <mxCell id="173" value="&lt;span style=&quot;background-color: rgb(248, 249, 250); font-size: 12px;&quot;&gt;«use»&lt;br&gt;für Video/Audio-Calls verwenden&lt;br&gt;&lt;/span&gt;" style="edgeLabel;resizable=0;html=1;align=center;verticalAlign=middle;fontFamily=Verdana;" parent="172" connectable="0" vertex="1">
                    <mxGeometry relative="1" as="geometry"/>
                </mxCell>
                <mxCell id="177" value="&lt;font&gt;«Component»&lt;br&gt;&lt;b&gt;Homepage&lt;/b&gt;&lt;br&gt;&lt;br&gt;waldorfconnect.de&lt;br&gt;&lt;/font&gt;" style="html=1;dropTarget=0;verticalAlign=top;fillColor=#fff2cc;fontFamily=Verdana;" vertex="1" parent="1">
                    <mxGeometry x="600" y="250" width="180" height="110" as="geometry"/>
                </mxCell>
                <mxCell id="178" value="" style="shape=component;jettyWidth=8;jettyHeight=4;fontFamily=Verdana;" vertex="1" parent="177">
                    <mxGeometry x="1" width="20" height="20" relative="1" as="geometry">
                        <mxPoint x="-27" y="7" as="offset"/>
                    </mxGeometry>
                </mxCell>
                <mxCell id="183" value="" style="endArrow=open;html=1;fillColor=#000000;fontFamily=Verdana;fontSize=12;endFill=0;dashed=1;exitX=0.5;exitY=1;exitDx=0;exitDy=0;" edge="1" parent="1" source="177" target="160">
                    <mxGeometry relative="1" as="geometry">
                        <mxPoint x="630" y="500" as="sourcePoint"/>
                        <mxPoint x="794.9999999999999" y="500.30999999999995" as="targetPoint"/>
                    </mxGeometry>
                </mxCell>
                <mxCell id="184" value="&lt;span style=&quot;border-color: var(--border-color); font-size: 12px; background-color: rgb(251, 251, 251);&quot;&gt;«hasLinkTo&lt;/span&gt;&lt;span style=&quot;border-color: var(--border-color); font-size: 12px; background-color: rgb(251, 251, 251);&quot;&gt;»&lt;/span&gt;" style="edgeLabel;resizable=0;html=1;align=center;verticalAlign=middle;fontFamily=Verdana;" connectable="0" vertex="1" parent="183">
                    <mxGeometry relative="1" as="geometry">
                        <mxPoint x="-2.76" y="0.8399999999999995" as="offset"/>
                    </mxGeometry>
                </mxCell>
                <mxCell id="185" value="" style="endArrow=open;html=1;fillColor=#000000;fontFamily=Verdana;fontSize=12;endFill=0;dashed=1;" edge="1" parent="1" source="177" target="175">
                    <mxGeometry relative="1" as="geometry">
                        <mxPoint x="487" y="470" as="sourcePoint"/>
                        <mxPoint x="651.9999999999999" y="470.30999999999995" as="targetPoint"/>
                    </mxGeometry>
                </mxCell>
                <mxCell id="186" value="&lt;span style=&quot;font-size: 12px; background-color: rgb(251, 251, 251);&quot;&gt;«hasLinkTo&lt;/span&gt;&lt;span style=&quot;font-size: 12px; background-color: rgb(251, 251, 251);&quot;&gt;»&lt;/span&gt;" style="edgeLabel;resizable=0;html=1;align=center;verticalAlign=middle;fontFamily=Verdana;" connectable="0" vertex="1" parent="185">
                    <mxGeometry relative="1" as="geometry">
                        <mxPoint x="-2.76" y="0.8399999999999995" as="offset"/>
                    </mxGeometry>
                </mxCell>
                <mxCell id="191" value="" style="endArrow=open;html=1;fillColor=#000000;fontFamily=Verdana;fontSize=12;endFill=0;dashed=1;exitX=0.75;exitY=1;exitDx=0;exitDy=0;" edge="1" parent="1" source="177" target="162">
                    <mxGeometry relative="1" as="geometry">
                        <mxPoint x="630" y="500" as="sourcePoint"/>
                        <mxPoint x="794.9999999999999" y="500.30999999999995" as="targetPoint"/>
                    </mxGeometry>
                </mxCell>
                <mxCell id="192" value="&lt;span style=&quot;border-color: var(--border-color); font-size: 12px; background-color: rgb(251, 251, 251);&quot;&gt;«hasLinkTo&lt;/span&gt;&lt;span style=&quot;border-color: var(--border-color); font-size: 12px; background-color: rgb(251, 251, 251);&quot;&gt;»&lt;/span&gt;" style="edgeLabel;resizable=0;html=1;align=center;verticalAlign=middle;fontFamily=Verdana;" connectable="0" vertex="1" parent="191">
                    <mxGeometry relative="1" as="geometry">
                        <mxPoint x="-2.76" y="0.8399999999999995" as="offset"/>
                    </mxGeometry>
                </mxCell>
            </root>
        </mxGraphModel>
    </diagram>
</mxfile>